<svg id="Capa_1" enable-background="new 0 0 512 512" height="512" viewBox="0 0 512 512" width="512" xmlns="http://www.w3.org/2000/svg"><g><path d="m486.704 443.67c-2.968-18.202-10.83-53.089-30.132-82.239-20.501-30.959-49.014-47.487-82.513-47.879-.123-.005-.244-.019-.368-.019-.067 0-.131.009-.197.01-.218-.001-43.102-.01-43.102-.01v-32.139c26.363-21.667 46.413-51.895 52.791-81.143h2.97c26.124 0 40.22-21.138 40.22-41.027 0-8.98-2.826-17.352-7.958-23.572-5.966-7.231-14.779-11.214-24.814-11.214h-9.301c-3.664-35.014-17.021-64.835-39.178-87.065-23.459-23.536-55.054-36.808-88.965-37.372-.11-.002-.221-.002-.333 0-33.909.564-65.499 13.836-88.952 37.374-22.149 22.228-35.501 52.048-39.163 87.063h-9.329c-10.032 0-18.842 3.984-24.807 11.219-5.129 6.221-7.954 14.593-7.954 23.573 0 19.886 14.092 41.021 40.209 41.021h2.998c6.376 29.236 26.412 59.451 52.762 81.118v32.165h-42.421c-34.039 0-63.001 16.563-83.755 47.897-19.306 29.148-27.168 64.037-30.139 82.253-2.868 17.746-3.679 41.96 8.739 56.546 6.555 7.701 16.055 11.77 27.471 11.77h59.955c5.523 0 10-4.477 10-10s-4.477-10-10-10h-59.955c-7.361 0-10.512-2.702-12.243-4.734-5.742-6.745-7.281-21.467-4.226-40.377 4.123-25.283 22.053-104.952 84.152-112.734v41.717c-14.223 4.3-24.611 17.521-24.611 33.126 0 19.097 15.526 34.633 34.611 34.633s34.611-15.536 34.611-34.633c0-15.605-10.388-28.825-24.611-33.126v-42.337h36.069l60.754 129.425v29.04h-34.832c-5.523 0-10 4.477-10 10s4.477 10 10 10h239.337c11.438 0 20.951-4.078 27.51-11.794 12.426-14.612 11.589-38.81 8.7-56.536zm-230.714-6.475-30.862-65.746c11.492 3.253 22.627 4.892 33.454 4.892 9.465 0 18.695-1.254 27.729-3.74zm137.61-292.757c4.128 0 7.198 1.29 9.387 3.942 2.151 2.607 3.385 6.56 3.385 10.843 0 7.273-4.226 21.027-20.22 21.027h-.818v-35.608c0-.069-.002-.136-.002-.205h8.268zm-137.61-124.437c50.387.914 104.379 36.968 109.016 113.821-30.116-2.541-70.229-8.675-102.055-39.53-3.879-3.761-10.043-3.761-13.922 0-31.822 30.851-71.921 36.987-102.026 39.529 4.635-76.852 58.613-112.906 108.987-113.82zm-150.371 139.23c0-4.286 1.234-8.241 3.386-10.851 2.187-2.652 5.253-3.942 9.375-3.942h8.297c0 .068-.002.136-.002.205v35.608h-.847c-15.985 0-20.209-13.75-20.209-21.02zm41.571 30c-.001-.008-.003-.016-.003-.024-.33-2.708-.512-5.389-.512-8.027v-27.264c30.015-2.436 73.255-8.303 109.315-38.945 36.065 30.645 79.319 36.51 109.343 38.945v27.264c0 2.622-.178 5.286-.505 7.978-.003.026-.008.051-.011.077-4.671 38.171-41.165 82.153-82.387 97.45-9.954 3.677-18.355 5.39-26.441 5.39-8.067 0-16.459-1.712-26.399-5.385-41.235-15.3-77.732-59.286-82.4-97.459zm75.456 116.216c12.242 4.522 22.837 6.629 33.344 6.629 10.525 0 21.129-2.106 33.385-6.634 7.191-2.669 14.227-6.059 21.016-10.042v25.904l-11.785 25.106c-26.121 13.406-53.432 13.278-85.418-.397l-11.599-24.709v-25.922c6.8 3.993 13.851 7.391 21.057 10.065zm-68.868 103.55c0 8.068-6.554 14.633-14.611 14.633s-14.611-6.564-14.611-14.633c0-8.053 6.554-14.604 14.611-14.604s14.611 6.551 14.611 14.604zm308.99 78.254c-1.733 2.039-4.891 4.749-12.273 4.749h-184.505v-29.042l49.131-104.665c.083-.16.155-.324.229-.488l11.394-24.272h36.947v32.123c-17.18 4.453-29.906 20.098-29.906 38.663v29.026c0 11.299 4.832 22.12 13.257 29.69 1.911 1.717 4.299 2.562 6.68 2.562 2.739 0 5.467-1.119 7.442-3.316 3.691-4.108 3.353-10.431-.755-14.122-4.21-3.782-6.624-9.181-6.624-14.813v-29.026c0-10.991 8.93-19.933 19.906-19.933 10.992 0 19.935 8.942 19.935 19.933v29.026c0 5.633-2.418 11.026-6.635 14.797-4.117 3.682-4.47 10.003-.788 14.12s10.003 4.469 14.12.788c8.454-7.561 13.303-18.388 13.303-29.706v-29.025c0-18.567-12.738-34.215-29.935-38.665v-31.381c61.385 8.405 79.17 87.449 83.274 112.615 3.033 18.614 1.465 33.703-4.197 40.362z"/><path d="m206.032 206.034c5.523 0 10-4.477 10-10v-17.631c0-5.523-4.477-10-10-10s-10 4.477-10 10v17.631c0 5.523 4.477 10 10 10z"/><path d="m305.947 206.034c5.523 0 10-4.477 10-10v-17.631c0-5.523-4.477-10-10-10s-10 4.477-10 10v17.631c0 5.523 4.477 10 10 10z"/><path d="m166.298 492c-5.523 0-10 4.477-10 10s4.477 10 10 10h.057c5.523 0 9.972-4.477 9.972-10s-4.506-10-10.029-10z"/><path d="m237.65 250.515c5.438 3.486 12.264 5.229 19.094 5.229 6.823 0 13.65-1.74 19.099-5.22 4.655-2.973 6.018-9.155 3.045-13.81s-9.155-6.019-13.81-3.045c-4.288 2.738-12.373 2.741-16.636.009-4.649-2.98-10.835-1.627-13.815 3.022-2.98 4.65-1.626 10.835 3.023 13.815z"/></g></svg>